# xmcd
#
# Track frame offsets: 
#        150
#        13520
#        27673
#        45535
#        64899
#        78442
#        90659
#        111969
#        125080
#        147415
#        161733
#        180033
#        192885
#        211322
#        231530
#        244003
#        262471
#        273199
#        290148
#        304464
#        324700
#        337032
#
# Disc length: 4675 seconds
#
# Revision: 1
# Processed by: cddbd v1.5.2PL0 Copyright (c) Steve Scherf et al.
# Submitted via: ExactAudioCopyFreeDBPlugin 1.0
#
DISCID=58124116
DTITLE=Various Artist - Romantic Collection - France
DYEAR=2000
DGENRE=Blues
TTITLE0=Mireille Mathieu - Une Historie D' Amour
TTITLE1=Herve Roy - Emmanuelle Song
TTITLE2=Joe Dassin - Le Cafe des 3 Colombes
TTITLE3=Jane Birkin and Serg Gainsbourg - Je T'aime
TTITLE4=Salvatore Adamo - Tombe la Neige
TTITLE5=Henri Salvador - Petit Fleur
TTITLE6=Frank Duval - It Was Love
TTITLE7=Yves Montand - Sous le Ciel de Paris
TTITLE8=Mylene Farmer - California
TTITLE9=Guy Mardeel and Chantal Goya - Une Rose
TTITLE10=Charles Aznavour - La Boheme
TTITLE11=Mireille Mathieu - Ciao , Bambino , Sorry
TTITLE12=Dalida avec Alain Delon - Paroles Paroles
TTITLE13=Victor Lazlo - Connoe Rose
TTITLE14=Joe Dassin - A Toi
TTITLE15=Patricia Kaas - Mon Mec A Moi
TTITLE16=Frencis Lai et Nicole Croisille - Un Homme et Une Femme
TTITLE17=Vanessa Paradis - Joe le Taxi
TTITLE18=Guy Marchnd - Hey Crooner
TTITLE19=Mylene Farmer - Et Si Vieillir M'etait Conte
TTITLE20=Michel Fugain - Se N'aurai Pas le Temps
TTITLE21=Paul Mauriat - Love Story
EXTD=
EXTT0=
EXTT1=
EXTT2=
EXTT3=
EXTT4=
EXTT5=
EXTT6=
EXTT7=
EXTT8=
EXTT9=
EXTT10=
EXTT11=
EXTT12=
EXTT13=
EXTT14=
EXTT15=
EXTT16=
EXTT17=
EXTT18=
EXTT19=
EXTT20=
EXTT21=
PLAYORDER=
